<svg width="202" height="38" viewBox="0 0 202 38" fill="none" xmlns="http://www.w3.org/2000/svg">
<path d="M14.532 20.284H10.836V37H2.562V20.284H0V13.438H2.562V13.228C2.562 10.204 3.444 7.894 5.208 6.298C7 4.674 9.562 3.862 12.894 3.862C13.566 3.862 14.084 3.876 14.448 3.904V10.918C14.224 10.89 13.916 10.876 13.524 10.876C12.628 10.876 11.97 11.086 11.55 11.506C11.13 11.898 10.892 12.542 10.836 13.438H14.532V20.284Z" fill="#54B22C"/>
<path d="M25.706 17.596C26.63 16.252 27.75 15.188 29.066 14.404C30.382 13.62 31.796 13.228 33.308 13.228V22.006H30.998C29.206 22.006 27.876 22.356 27.008 23.056C26.14 23.756 25.706 24.974 25.706 26.71V37H17.474V13.438H25.706V17.596Z" fill="#54B22C"/>
<path d="M58.7711 24.946C58.7711 25.59 58.7291 26.234 58.6451 26.878H43.0631C43.1471 28.166 43.4971 29.132 44.1131 29.776C44.7571 30.392 45.5691 30.7 46.5491 30.7C47.9211 30.7 48.9011 30.084 49.4891 28.852H58.2671C57.9031 30.476 57.1891 31.932 56.1251 33.22C55.0891 34.48 53.7731 35.474 52.1771 36.202C50.5811 36.93 48.8171 37.294 46.8851 37.294C44.5611 37.294 42.4891 36.804 40.6691 35.824C38.8771 34.844 37.4631 33.444 36.4271 31.624C35.4191 29.804 34.9151 27.662 34.9151 25.198C34.9151 22.734 35.4191 20.606 36.4271 18.814C37.4351 16.994 38.8351 15.594 40.6271 14.614C42.4471 13.634 44.5331 13.144 46.8851 13.144C49.2091 13.144 51.2671 13.62 53.0591 14.572C54.8511 15.524 56.2511 16.896 57.2591 18.688C58.2671 20.452 58.7711 22.538 58.7711 24.946ZM50.3711 22.888C50.3711 21.88 50.0351 21.096 49.3631 20.536C48.6911 19.948 47.8511 19.654 46.8431 19.654C45.8351 19.654 45.0091 19.934 44.3651 20.494C43.7211 21.026 43.3011 21.824 43.1051 22.888H50.3711Z" fill="#54B22C"/>
<path d="M72.178 37.294C70.05 37.294 68.146 36.944 66.466 36.244C64.814 35.516 63.498 34.536 62.518 33.304C61.566 32.044 61.034 30.63 60.922 29.062H68.902C69.014 29.818 69.364 30.406 69.952 30.826C70.54 31.246 71.268 31.456 72.136 31.456C72.808 31.456 73.34 31.316 73.732 31.036C74.124 30.756 74.32 30.392 74.32 29.944C74.32 29.356 73.998 28.922 73.354 28.642C72.71 28.362 71.646 28.054 70.162 27.718C68.482 27.382 67.082 27.004 65.962 26.584C64.842 26.164 63.862 25.478 63.022 24.526C62.21 23.574 61.804 22.286 61.804 20.662C61.804 19.262 62.182 18.002 62.938 16.882C63.694 15.734 64.8 14.824 66.256 14.152C67.74 13.48 69.518 13.144 71.59 13.144C74.67 13.144 77.092 13.9 78.856 15.412C80.62 16.924 81.642 18.912 81.922 21.376H74.488C74.348 20.62 74.012 20.046 73.48 19.654C72.976 19.234 72.29 19.024 71.422 19.024C70.75 19.024 70.232 19.15 69.868 19.402C69.532 19.654 69.364 20.004 69.364 20.452C69.364 21.012 69.686 21.446 70.33 21.754C70.974 22.034 72.01 22.328 73.438 22.636C75.146 23 76.56 23.406 77.68 23.854C78.828 24.302 79.822 25.03 80.662 26.038C81.53 27.018 81.964 28.362 81.964 30.07C81.964 31.442 81.558 32.674 80.746 33.766C79.962 34.858 78.828 35.726 77.344 36.37C75.888 36.986 74.166 37.294 72.178 37.294Z" fill="#54B22C"/>
<path d="M101.509 13.228C104.197 13.228 106.325 14.138 107.893 15.958C109.489 17.75 110.287 20.186 110.287 23.266V37H102.055V24.358C102.055 23.014 101.705 21.964 101.005 21.208C100.305 20.424 99.3671 20.032 98.1911 20.032C96.9591 20.032 95.9931 20.424 95.2931 21.208C94.5931 21.964 94.2431 23.014 94.2431 24.358V37H86.0111V5.92H94.2431V16.798C94.9711 15.734 95.9511 14.88 97.1831 14.236C98.4431 13.564 99.8851 13.228 101.509 13.228Z" fill="#54B22C"/>
<path d="M113.462 25.198C113.462 22.762 113.966 20.634 114.974 18.814C115.982 16.994 117.382 15.594 119.174 14.614C120.994 13.634 123.066 13.144 125.39 13.144C128.386 13.144 130.906 13.97 132.95 15.622C134.994 17.246 136.31 19.528 136.898 22.468H128.162C127.658 20.928 126.678 20.158 125.222 20.158C124.186 20.158 123.36 20.592 122.744 21.46C122.156 22.3 121.862 23.546 121.862 25.198C121.862 26.85 122.156 28.11 122.744 28.978C123.36 29.846 124.186 30.28 125.222 30.28C126.706 30.28 127.686 29.51 128.162 27.97H136.898C136.31 30.882 134.994 33.164 132.95 34.816C130.906 36.468 128.386 37.294 125.39 37.294C123.066 37.294 120.994 36.804 119.174 35.824C117.382 34.844 115.982 33.444 114.974 31.624C113.966 29.804 113.462 27.662 113.462 25.198Z" fill="#F8CB47"/>
<path d="M138.974 25.198C138.974 22.762 139.408 20.634 140.276 18.814C141.172 16.994 142.376 15.594 143.888 14.614C145.428 13.634 147.136 13.144 149.012 13.144C150.636 13.144 152.036 13.466 153.212 14.11C154.388 14.754 155.298 15.622 155.942 16.714V13.438H164.174V37H155.942V33.724C155.298 34.816 154.374 35.684 153.17 36.328C151.994 36.972 150.608 37.294 149.012 37.294C147.136 37.294 145.428 36.804 143.888 35.824C142.376 34.844 141.172 33.444 140.276 31.624C139.408 29.776 138.974 27.634 138.974 25.198ZM155.942 25.198C155.942 23.686 155.522 22.496 154.682 21.628C153.87 20.76 152.862 20.326 151.658 20.326C150.426 20.326 149.404 20.76 148.592 21.628C147.78 22.468 147.374 23.658 147.374 25.198C147.374 26.71 147.78 27.914 148.592 28.81C149.404 29.678 150.426 30.112 151.658 30.112C152.862 30.112 153.87 29.678 154.682 28.81C155.522 27.942 155.942 26.738 155.942 25.198Z" fill="#F8CB47"/>
<path d="M177.097 17.596C178.021 16.252 179.141 15.188 180.457 14.404C181.773 13.62 183.187 13.228 184.699 13.228V22.006H182.389C180.597 22.006 179.267 22.356 178.399 23.056C177.531 23.756 177.097 24.974 177.097 26.71V37H168.865V13.438H177.097V17.596Z" fill="#F8CB47"/>
<path d="M201.552 29.986V37H197.982C191.962 37 188.952 34.018 188.952 28.054V20.284H186.054V13.438H188.952V7.726H197.226V13.438H201.51V20.284H197.226V28.18C197.226 28.824 197.366 29.286 197.646 29.566C197.954 29.846 198.458 29.986 199.158 29.986H201.552Z" fill="#F8CB47"/>
<path d="M46.4647 13C45.5651 12.9318 45.0949 12.5864 44.8534 12.203C44.8996 11.2697 45.0338 10.1072 45.4107 9.05221C45.6268 8.44808 45.9335 7.90116 46.3097 7.49915C46.721 7.01994 47.1011 6.65121 47.484 6.34716C48.2399 5.75068 48.903 5.49083 49.1129 5.39943C49.3252 5.31218 49.7058 5.14817 50.1663 4.96555C50.6254 4.79805 51.1815 4.55565 51.6561 4.25929C52.6292 3.69237 53.4345 3.05238 53.4345 3.05238C53.4345 3.05238 52.5737 3.56185 51.5718 3.98453C51.0662 4.21415 50.5496 4.36511 50.0675 4.48402C49.593 4.61404 49.1923 4.74642 48.9716 4.83736C48.559 5.02091 46.0868 5.86376 44.8241 8.68908C44.5384 9.41072 44.3593 10.1572 44.2433 10.8567C43.9579 10.6851 43.6025 10.3529 43.5057 9.73801C43.337 8.66674 43.4309 5.45222 46.1649 3.66654C48.8992 1.88107 51.9518 2.23793 53.4127 1.71428C54.8734 1.19062 55.454 0 55.454 0C55.454 0 54.2366 12.119 46.4647 13Z" fill="#F8CB47"/>
</svg>
